<svg width="100" height="150" viewBox="0 0 100 150" fill="none" xmlns="http://www.w3.org/2000/svg">
<rect width="100" height="150" rx="10" fill="url(#paint0_linear_29_40)" fill-opacity="0.8"/>
<g clip-path="url(#clip0_29_40)">
<path d="M73 4C73 17.564 70.2468 29.7449 65.8888 38.4609C61.471 47.2965 55.7379 52 50 52C44.2621 52 38.529 47.2965 34.1112 38.4609C29.7532 29.7449 27 17.564 27 4C27 -9.56395 29.7532 -21.7449 34.1112 -30.4609C38.529 -39.2965 44.2621 -44 50 -44C55.7379 -44 61.471 -39.2965 65.8888 -30.4609C70.2468 -21.7449 73 -9.56395 73 4Z" stroke="white" stroke-width="4"/>
<path d="M73 146C73 159.564 70.2468 171.745 65.8888 180.461C61.471 189.297 55.7379 194 50 194C44.2621 194 38.529 189.297 34.1112 180.461C29.7532 171.745 27 159.564 27 146C27 132.436 29.7532 120.255 34.1112 111.539C38.529 102.703 44.2621 98 50 98C55.7379 98 61.471 102.703 65.8888 111.539C70.2468 120.255 73 132.436 73 146Z" stroke="white" stroke-width="4"/>
<circle cx="50" cy="75" r="23" stroke="white" stroke-width="4"/>
<circle cx="25" cy="75" r="23" stroke="white" stroke-width="4"/>
<circle cx="75" cy="75" r="23" stroke="white" stroke-width="4"/>
</g>
<defs>
<linearGradient id="paint0_linear_29_40" x1="0" y1="0" x2="100" y2="150" gradientUnits="userSpaceOnUse">
<stop/>
<stop offset="1" stop-opacity="0.5"/>
</linearGradient>
<clipPath id="clip0_29_40">
<rect width="90" height="130" fill="white" transform="translate(5 10)"/>
</clipPath>
</defs>
</svg>
